<?xml version="1.0" encoding="iso-8859-1"?>
<!-- Generator: Adobe Illustrator 19.1.0, SVG Export Plug-In . SVG Version: 6.00 Build 0)  -->
<svg version="1.1" id="Layer_1" xmlns="http://www.w3.org/2000/svg" xmlns:xlink="http://www.w3.org/1999/xlink" x="0px" y="0px"
	 viewBox="0 0 16.1 17.6" style="enable-background:new 0 0 16.1 17.6;" xml:space="preserve">
<g>
	<g>
		<path style="fill:#1D1D1B;" d="M12.4,13.9V4.3c0,0-1.5-1.8-4.3-1.8S3.7,4.3,3.7,4.3v9.6H2.3v1.3h11.5v-1.3H12.4z"/>
		<path style="fill:#FFFFFF;" d="M8.1,2.5c2.8,0,4.3,1.8,4.3,1.8v9.6h1.4v1.3H2.3v-1.3h1.4V4.3C3.7,4.3,5.3,2.5,8.1,2.5 M8.1,0.5
			C4.5,0.5,2.4,2.7,2.2,3L1.7,3.6v0.7v7.6H0.3v2v1.3v2h2h11.5h2v-2v-1.3v-2h-1.4V4.3V3.6L13.9,3C13.7,2.8,11.7,0.5,8.1,0.5L8.1,0.5z
			"/>
	</g>
</g>
</svg>
